<?xml version="1.0" encoding="UTF-8" standalone="no"?>
<svg
   xmlns:dc="http://purl.org/dc/elements/1.1/"
   xmlns:cc="http://creativecommons.org/ns#"
   xmlns:rdf="http://www.w3.org/1999/02/22-rdf-syntax-ns#"
   xmlns:svg="http://www.w3.org/2000/svg"
   xmlns="http://www.w3.org/2000/svg"
   xmlns:sodipodi="http://sodipodi.sourceforge.net/DTD/sodipodi-0.dtd"
   xmlns:inkscape="http://www.inkscape.org/namespaces/inkscape"
   xml:space="preserve"
   width="256"
   height="256"
   version="1.1"
   style="clip-rule:evenodd;fill-rule:evenodd;image-rendering:optimizeQuality;shape-rendering:geometricPrecision;text-rendering:geometricPrecision"
   viewBox="0 0 6773.3332 6773.3335"
   id="svg25"
   sodipodi:docname="icon_app.svg"
   inkscape:version="0.92.2 2405546, 2018-03-11"><metadata
   id="metadata29"><rdf:RDF><cc:Work
       rdf:about=""><dc:format>image/svg+xml</dc:format><dc:type
         rdf:resource="http://purl.org/dc/dcmitype/StillImage" /><dc:title></dc:title></cc:Work></rdf:RDF></metadata><sodipodi:namedview
   pagecolor="#ffffff"
   bordercolor="#666666"
   borderopacity="1"
   objecttolerance="10"
   gridtolerance="10"
   guidetolerance="10"
   inkscape:pageopacity="0"
   inkscape:pageshadow="2"
   inkscape:window-width="1883"
   inkscape:window-height="1080"
   id="namedview27"
   showgrid="false"
   units="px"
   inkscape:zoom="1.1893044"
   inkscape:cx="-33.597499"
   inkscape:cy="83.893245"
   inkscape:window-x="37"
   inkscape:window-y="0"
   inkscape:window-maximized="1"
   inkscape:current-layer="svg25" />
 <defs
   id="defs4"><style
   type="text/css"
   id="style2">
   <![CDATA[
    .str0 {stroke:#23597F;stroke-width:200}
    .fil0 {fill:none}
    .fil2 {fill:#10ADED}
    .fil1 {fill:#23597F}
   ]]>
  </style>
  
  
  
  
  
  
  
  
  
 </defs>
 <path
   style="fill:#ffffff;stroke:#23597f;stroke-width:155.80735779"
   inkscape:connector-curvature="0"
   id="path6"
   d="m 77.854405,1545.8096 v 3681.718 c 0,128.6224 31.141775,327.4024 76.297345,446.6704 15.57089,42.0946 30.36323,84.9688 47.4912,126.2838 l 56.05519,117.709 c 63.0621,132.52 165.0514,244.7723 265.48362,347.6702 9.34253,9.3543 11.67817,13.252 20.24215,21.8268 92.64678,102.8979 214.87824,179.2918 335.55261,244.7723 150.25908,81.071 372.92278,162.9216 541.08828,162.9216 h 3941.77 c 238.2345,0 534.8599,-142.6539 734.1673,-285.3078 109.7747,-78.7325 261.5909,-236.977 337.8882,-350.0087 14.0138,-20.2678 17.9065,-30.4017 31.9203,-50.6695 74.7403,-104.4569 147.9235,-286.0873 183.7365,-413.1506 7.0069,-25.7245 11.6782,-35.0788 16.3494,-62.3624 11.6782,-73.2758 29.5847,-145.772 29.5847,-222.9454 V 1470.9748 c 0,-98.2208 -28.0276,-218.2683 -49.8268,-298.5599 C 6519.5302,691.44522 6130.258,304.79857 5663.91,148.11313 5556.4709,112.25477 5396.8693,77.955472 5287.8731,77.955472 H 1502.5905 c -248.3556,0 -495.9327,95.882138 -689.0117,205.795798 -24.13488,14.03153 -29.58469,21.82683 -53.71956,37.41742 C 631.39942,399.90117 610.37873,427.96424 510.72505,527.74402 413.40701,625.18521 428.9779,606.4765 346.4522,719.50828 L 244.46289,891.78431 c -10.12107,20.26777 -20.24215,35.85836 -31.14177,59.24425 l -73.96171,199.55954 c -34.25595,120.0476 -61.505005,258.8038 -61.505005,395.2215 z"
   class="fil0 str0" /><rect
   style="fill:#23597f;stroke-width:0.77903676"
   id="rect8"
   height="4479.9561"
   width="337.88824"
   y="1146.6904"
   x="1359.3384"
   class="fil1" /><rect
   style="fill:#10aded;stroke-width:0.77903676"
   id="rect10"
   height="4479.9561"
   width="337.88824"
   y="1146.6904"
   x="2035.1149"
   class="fil2" /><rect
   style="fill:#10aded;stroke-width:0.77903676"
   id="rect12"
   height="4479.9561"
   width="337.88824"
   y="1146.6904"
   x="4062.4443"
   class="fil2" /><rect
   style="fill:#10aded;stroke-width:0.77903676"
   id="rect14"
   height="895.67944"
   width="337.88824"
   y="2938.8289"
   x="2710.8914"
   class="fil2" /><line
   style="fill:none;stroke-width:0.77903676"
   id="line16"
   y2="2042.3699"
   x2="3724.5562"
   y1="2042.3699"
   x1="3386.6677"
   class="fil0" /><rect
   style="fill:#23597f;stroke-width:0.77903676"
   id="rect18"
   height="2687.8179"
   width="337.88824"
   y="2042.3699"
   x="3386.6677"
   class="fil1" /><rect
   style="fill:#23597f;stroke-width:0.77903676"
   id="rect20"
   height="2687.8179"
   width="337.88824"
   y="2042.3699"
   x="4738.2207"
   class="fil1" /><rect
   style="fill:#10aded;stroke-width:0.77903676"
   id="rect22"
   height="895.67944"
   width="337.88824"
   y="2938.8289"
   x="5414.7759"
   class="fil2" />
</svg>