<?xml version="1.0" encoding="UTF-8"?>
<!DOCTYPE svg PUBLIC "-//W3C//DTD SVG 1.1//EN" "http://www.w3.org/Graphics/SVG/1.1/DTD/svg11.dtd">
<!-- Creator: CorelDRAW X8 -->
<svg xmlns="http://www.w3.org/2000/svg" xml:space="preserve" width="210mm" height="297mm" version="1.1" style="shape-rendering:geometricPrecision; text-rendering:geometricPrecision; image-rendering:optimizeQuality; fill-rule:evenodd; clip-rule:evenodd"
viewBox="0 0 21000 29700"
 xmlns:xlink="http://www.w3.org/1999/xlink">
 <defs>
  <style type="text/css">
   <![CDATA[
    .fil1 {fill:none}
    .fil0 {fill:white}
    .fil2 {fill:white;fill-rule:nonzero}
   ]]>
  </style>
 </defs>
 <g id="Camada_x0020_1">
  <metadata id="CorelCorpID_0Corel-Layer"/>
  <rect class="fil0" x="2484" y="5435" width="1242" height="16450"/>
  <rect class="fil0" x="4969" y="5435" width="1242" height="16450"/>
  <rect class="fil0" x="12423" y="5435" width="1242" height="16450"/>
  <rect class="fil0" x="7453" y="12014" width="1242" height="3290"/>
  <line class="fil1" x1="9938" y1="8725" x2="11181" y2= "8725" />
  <rect class="fil0" x="9938" y="8725" width="1242" height="9870"/>
  <rect class="fil0" x="14908" y="8725" width="1242" height="9870"/>
  <rect class="fil0" x="17393" y="12014" width="1242" height="3290"/>
  <g id="_749112552">
   <path class="fil2" d="M2469 25809l0 -1824 242 0 0 904 905 -904 327 0 -765 740 798 1084 -318 0 -649 -920 -298 288 0 632 -242 0zm1749 0l0 -1824 242 0 0 1824 -242 0zm588 -586l227 -20c10,91 35,166 75,225 39,59 100,107 183,143 83,36 176,54 280,54 92,0 173,-13 243,-41 71,-27 123,-65 157,-113 35,-48 52,-100 52,-156 0,-57 -16,-107 -49,-150 -34,-42 -88,-78 -165,-107 -49,-19 -157,-48 -324,-89 -168,-40 -285,-78 -352,-113 -87,-46 -152,-103 -194,-171 -43,-67 -64,-143 -64,-227 0,-92 26,-178 78,-258 52,-80 128,-141 229,-183 100,-41 212,-62 334,-62 135,0 255,22 358,65 103,44 182,108 238,193 56,84 85,180 89,287l-231 18c-13,-115 -55,-202 -126,-261 -72,-59 -178,-88 -318,-88 -146,0 -253,27 -319,80 -67,54 -101,118 -101,194 0,65 24,119 71,161 47,42 168,86 364,130 196,45 331,83 404,116 105,49 184,111 234,186 51,75 76,161 76,258 0,98 -28,188 -83,274 -56,86 -135,152 -239,200 -104,48 -221,71 -351,71 -165,0 -303,-24 -414,-72 -112,-48 -199,-120 -262,-217 -64,-96 -97,-205 -100,-327zm1698 0l227 -20c11,91 36,166 75,225 40,59 101,107 184,143 82,36 176,54 279,54 92,0 173,-13 244,-41 70,-27 123,-65 157,-113 34,-48 52,-100 52,-156 0,-57 -17,-107 -50,-150 -33,-42 -88,-78 -164,-107 -49,-19 -157,-48 -325,-89 -168,-40 -285,-78 -352,-113 -87,-46 -151,-103 -194,-171 -43,-67 -64,-143 -64,-227 0,-92 27,-178 79,-258 52,-80 128,-141 229,-183 100,-41 211,-62 334,-62 135,0 254,22 357,65 103,44 183,108 238,193 56,84 86,180 90,287l-232 18c-12,-115 -54,-202 -126,-261 -72,-59 -178,-88 -318,-88 -146,0 -252,27 -319,80 -66,54 -100,118 -100,194 0,65 24,119 71,161 47,42 168,86 364,130 196,45 330,83 403,116 106,49 184,111 235,186 50,75 75,161 75,258 0,98 -27,188 -83,274 -55,86 -135,152 -239,200 -104,48 -220,71 -351,71 -164,0 -302,-24 -413,-72 -112,-48 -199,-120 -262,-217 -64,-96 -97,-205 -101,-327z"/>
   <path class="fil2" d="M8989 25809l0 -1824 689 0c121,0 213,6 277,18 90,15 165,43 226,85 60,42 109,100 146,175 37,76 55,158 55,249 0,154 -49,285 -148,392 -98,108 -277,161 -535,161l-468 0 0 744 -242 0zm242 -958l471 0c157,0 267,-29 333,-87 65,-58 98,-139 98,-245 0,-76 -19,-141 -58,-196 -39,-54 -89,-90 -152,-108 -41,-10 -116,-16 -225,-16l-467 0 0 652zm1447 958l0 -1824 242 0 0 1610 896 0 0 214 -1138 0zm1226 0l700 -1824 265 0 742 1824 -274 0 -211 -553 -768 0 -198 553 -256 0zm525 -749l621 0 -190 -505c-57,-154 -100,-281 -131,-381 -25,119 -58,235 -100,351l-200 535zm1699 749l0 -773 -703 -1051 290 0 361 552c67,102 129,205 186,307 56,-95 123,-202 202,-321l353 -538 281 0 -728 1051 0 773 -242 0zm1190 0l0 -1824 1316 0 0 214 -1075 0 0 561 1006 0 0 214 -1006 0 0 621 1118 0 0 214 -1359 0zm1698 0l0 -1824 808 0c163,0 286,17 371,50 84,32 152,90 202,173 51,83 76,174 76,274 0,130 -42,239 -126,328 -84,88 -213,144 -387,169 64,30 112,61 145,90 71,65 137,146 200,243l315 497 -301 0 -242 -380c-70,-110 -128,-193 -173,-251 -46,-58 -87,-99 -123,-122 -35,-23 -72,-39 -110,-49 -27,-5 -71,-8 -134,-8l-279 0 0 810 -242 0zm242 -1019l518 0c110,0 196,-11 258,-34 62,-23 109,-59 141,-110 32,-50 48,-104 48,-163 0,-86 -31,-158 -93,-213 -63,-56 -161,-83 -296,-83l-576 0 0 603z"/>
  </g>
 </g>
</svg>
