<?xml version="1.0" encoding="UTF-8"?>
<!DOCTYPE svg PUBLIC "-//W3C//DTD SVG 1.1//EN" "http://www.w3.org/Graphics/SVG/1.1/DTD/svg11.dtd">
<!-- Creator: CorelDRAW X8 -->
<svg xmlns="http://www.w3.org/2000/svg" xml:space="preserve" width="297mm" height="210mm" version="1.1" style="shape-rendering:geometricPrecision; text-rendering:geometricPrecision; image-rendering:optimizeQuality; fill-rule:evenodd; clip-rule:evenodd"
viewBox="0 0 29700 21000"
 xmlns:xlink="http://www.w3.org/1999/xlink">
 <defs>
  <style type="text/css">
   <![CDATA[
    .fil1 {fill:none}
    .fil0 {fill:white}
    .fil2 {fill:white;fill-rule:nonzero}
   ]]>
  </style>
 </defs>
 <g id="Camada_x0020_1">
  <metadata id="CorelCorpID_0Corel-Layer"/>
  <rect class="fil0" x="1441" y="8214" width="327" height="4328"/>
  <rect class="fil0" x="2095" y="8214" width="327" height="4328"/>
  <rect class="fil0" x="4056" y="8214" width="327" height="4328"/>
  <rect class="fil0" x="2749" y="9945" width="327" height="866"/>
  <line class="fil1" x1="3402" y1="9080" x2="3729" y2= "9080" />
  <rect class="fil0" x="3402" y="9080" width="327" height="2597"/>
  <rect class="fil0" x="4710" y="9080" width="327" height="2597"/>
  <rect class="fil0" x="5364" y="9945" width="327" height="866"/>
  <path class="fil2" d="M6937 11634l0 -2467 327 0 0 1223 1226 -1223 442 0 -1035 1001 1080 1466 -431 0 -878 -1245 -404 391 0 854 -327 0zm2367 0l0 -2467 327 0 0 2467 -327 0zm795 -792l307 -28c14,124 48,226 102,306 53,79 136,143 248,193 112,48 238,73 378,73 125,0 234,-18 330,-56 95,-37 166,-88 212,-153 47,-65 70,-135 70,-211 0,-77 -22,-144 -67,-202 -45,-58 -119,-106 -222,-146 -66,-25 -213,-65 -439,-120 -227,-54 -386,-105 -476,-154 -118,-62 -205,-139 -263,-230 -58,-91 -87,-194 -87,-307 0,-125 36,-242 107,-350 70,-108 173,-190 309,-247 136,-56 287,-84 453,-84 182,0 344,29 483,88 140,59 247,146 322,260 76,115 116,244 122,389l-314 24c-17,-155 -74,-273 -171,-352 -97,-80 -240,-120 -430,-120 -197,0 -341,36 -432,109 -90,72 -135,159 -135,262 0,88 32,161 96,218 63,57 227,116 492,176 265,60 447,113 546,158 143,66 249,149 318,250 68,102 102,218 102,350 0,132 -37,255 -113,371 -75,116 -182,206 -323,270 -141,64 -299,97 -475,97 -223,0 -409,-33 -560,-98 -151,-65 -269,-163 -354,-293 -86,-131 -131,-278 -136,-443zm2299 0l306 -28c15,124 48,226 102,306 53,79 136,143 248,193 112,48 238,73 378,73 125,0 235,-18 330,-56 95,-37 166,-88 213,-153 46,-65 70,-135 70,-211 0,-77 -23,-144 -68,-202 -44,-58 -118,-106 -222,-146 -66,-25 -212,-65 -439,-120 -227,-54 -386,-105 -476,-154 -118,-62 -205,-139 -263,-230 -58,-91 -86,-194 -86,-307 0,-125 35,-242 106,-350 70,-108 173,-190 309,-247 136,-56 287,-84 453,-84 183,0 344,29 483,88 140,59 247,146 323,260 75,115 115,244 121,389l-314 24c-16,-155 -73,-273 -170,-352 -97,-80 -241,-120 -430,-120 -198,0 -342,36 -432,109 -90,72 -136,159 -136,262 0,88 32,161 96,218 63,57 227,116 492,176 266,60 448,113 546,158 143,66 250,149 318,250 68,102 102,218 102,350 0,132 -37,255 -112,371 -76,116 -183,206 -324,270 -140,64 -298,97 -475,97 -222,0 -409,-33 -560,-98 -151,-65 -268,-163 -354,-293 -86,-131 -131,-278 -135,-443z"/>
  <path class="fil2" d="M15760 11634l0 -2467 931 0c164,0 289,8 376,24 121,20 223,58 305,115 82,56 148,136 198,237 50,102 75,214 75,336 0,209 -67,387 -201,531 -133,146 -375,218 -724,218l-633 0 0 1006 -327 0zm327 -1295l638 0c211,0 360,-39 449,-118 89,-79 133,-189 133,-332 0,-103 -26,-191 -78,-265 -52,-73 -121,-122 -206,-146 -55,-14 -157,-21 -305,-21l-631 0 0 882zm1957 1295l0 -2467 328 0 0 2178 1213 0 0 289 -1541 0zm1660 0l946 -2467 359 0 1005 2467 -372 0 -285 -747 -1039 0 -268 747 -346 0zm710 -1013l841 0 -258 -684c-77,-208 -136,-379 -177,-515 -33,161 -79,319 -136,475l-270 724zm2299 1013l0 -1045 -951 -1422 392 0 488 747c91,138 175,277 252,415 75,-129 167,-274 273,-435l478 -727 380 0 -985 1422 0 1045 -327 0zm1609 0l0 -2467 1782 0 0 290 -1454 0 0 758 1361 0 0 289 -1361 0 0 841 1512 0 0 289 -1840 0zm2299 0l0 -2467 1093 0c220,0 387,23 501,67 115,44 206,122 274,234 69,112 102,236 102,372 0,175 -56,322 -170,442 -113,120 -287,196 -524,229 87,41 152,83 197,123 95,87 186,197 270,328l427 672 -408 0 -326 -513c-95,-149 -174,-262 -235,-341 -62,-78 -117,-133 -166,-165 -48,-31 -98,-52 -149,-65 -37,-7 -97,-11 -181,-11l-378 0 0 1095 -327 0zm327 -1378l700 0c150,0 266,-16 350,-47 84,-30 147,-79 190,-148 44,-67 66,-141 66,-221 0,-116 -42,-213 -127,-288 -84,-75 -217,-113 -399,-113l-780 0 0 817z"/>
 </g>
</svg>
